<svg version="1.1" id="Layer_1" xmlns="http://www.w3.org/2000/svg" xmlns:xlink="http://www.w3.org/1999/xlink" x="0px" y="0px"
	 width="100%" viewBox="0 0 496 496" enable-background="new 0 0 496 496" xml:space="preserve">
<path fill="#000000" opacity="1.000000" stroke="none" 
	d="
M252.682281,386.944855 
	C229.268875,391.515198 206.574371,388.529449 183.846680,384.705475 
	C168.137634,382.062378 152.325760,383.030182 136.563889,384.736053 
	C126.151047,385.863007 115.735603,386.965881 105.323051,388.095398 
	C102.450592,388.406982 99.975098,387.781464 98.457642,385.110199 
	C96.932243,382.424896 97.785965,379.980408 99.445953,377.676453 
	C107.721504,366.190765 116.109985,354.783997 124.225525,343.186310 
	C128.901840,336.503510 133.167648,329.534180 136.658554,322.122894 
	C140.056290,314.909332 142.352646,314.034119 151.216263,316.703491 
	C143.763657,338.144348 129.239502,355.262390 116.322350,374.105621 
	C122.443398,375.717896 128.015182,374.052948 133.336746,373.348450 
	C152.994354,370.746124 172.519745,370.863342 191.919205,374.855011 
	C214.420471,379.484985 236.866272,379.461395 259.220764,374.461945 
	C277.816803,370.303070 296.257416,371.330566 314.638947,375.209137 
	C334.954620,379.495758 355.253479,379.275452 375.637299,376.037079 
	C379.082428,375.489777 382.554199,374.868164 386.025330,374.788269 
	C390.285248,374.690216 391.303497,373.369476 389.510834,369.319794 
	C381.761475,351.813446 374.832886,333.890228 362.665283,318.729126 
	C362.191071,318.138214 362.002136,317.318359 361.662262,316.565277 
	C371.068207,313.888550 374.754852,315.029480 379.431671,322.406219 
	C390.200134,339.391205 396.797943,358.353729 404.796997,376.643341 
	C406.586060,380.734039 404.493317,383.765930 399.880737,384.358368 
	C382.897705,386.539734 365.931702,388.799042 348.776520,389.422150 
	C334.491425,389.941010 320.625397,387.012909 306.668274,384.976776 
	C291.013214,382.692963 275.516602,382.911102 260.000732,385.731201 
	C257.712677,386.147064 255.408340,386.473419 252.682281,386.944855 
z"/>
<path fill="#000000" opacity="1.000000" stroke="none" 
	d="
M288.060394,176.967957 
	C296.201569,189.645538 306.380157,200.294678 315.124573,212.061401 
	C323.915466,223.890701 329.209808,237.289429 334.036987,250.973694 
	C334.301575,251.723785 334.256592,252.583054 334.350464,253.348648 
	C326.358978,256.104889 323.923767,255.008240 321.120850,247.499420 
	C315.460754,232.336563 307.112976,218.730865 296.427063,206.680420 
	C279.262695,187.324158 267.490936,164.878204 257.686096,141.210632 
	C256.565643,138.506012 255.798233,135.559631 253.408203,132.834198 
	C244.402588,146.280045 235.703049,159.427307 228.263641,173.372543 
	C221.344940,186.341705 216.624100,200.242340 211.162155,213.826447 
	C206.217056,226.125076 199.254944,237.129608 191.460037,247.851028 
	C186.331573,254.904892 180.384705,255.113312 173.331375,253.952835 
	C172.795578,252.910492 173.208176,252.160919 173.775284,251.555252 
	C190.408875,233.790680 200.441864,212.354889 208.534714,189.755829 
	C216.471069,167.593781 229.753220,148.328247 242.365082,128.722000 
	C244.707443,125.080574 246.916702,121.342644 249.442245,117.832626 
	C252.785767,113.185791 257.512848,113.515350 259.893341,118.691116 
	C265.805237,131.545044 271.428345,144.531494 277.277893,157.414566 
	C280.310242,164.093002 283.902618,170.485519 288.060394,176.967957 
z"/>
<path fill="#000000" opacity="1.000000" stroke="none" 
	d="
M249.856567,284.078430 
	C252.257080,283.124023 254.103439,283.200928 254.363266,285.981171 
	C254.486801,287.303131 253.407822,288.147827 252.174850,288.106415 
	C249.755951,288.025116 248.491867,286.914246 249.856567,284.078430 
z"/>
</svg>