<?xml version="1.0" encoding="UTF-8"?>
<svg version="1.1" xmlns="http://www.w3.org/2000/svg" width="500" height="500">
<path d="M0 0 C165 0 330 0 500 0 C500 165 500 330 500 500 C335 500 170 500 0 500 C0 335 0 170 0 0 Z " fill="#FEFEFE" transform="translate(0,0)"/>
<path d="M0 0 C3.63 0 7.26 0 11 0 C3.36625295 22.09382559 -10.88150092 40.62354088 -25 59 C-18.278526 58.56264381 -11.65921188 57.9580966 -5 56.9375 C12.77527321 54.49401698 31.20571298 54.99596898 48.76416016 58.56347656 C74.73644966 63.6342839 98.98443006 62.55888745 124.84594727 57.4362793 C130.70372079 56.3039159 136.34359555 55.58131021 142.3125 55.5625 C143.17915283 55.55935791 144.04580566 55.55621582 144.9387207 55.55297852 C155.84245358 55.74089251 166.50517032 57.84571269 177.19921875 59.80859375 C197.67178233 63.50935454 218.10921312 62.51322918 238.62890625 59.65625 C243.13955552 59.04560684 247.45240392 58.87022318 252 59 C240.37462302 30.28566363 240.37462302 30.28566363 223.796875 4.32421875 C222 2 222 2 222 0 C226.58195062 -0.89231187 230.44179768 -1.11892523 235 0 C239.19275684 3.96488962 241.50358313 8.87962831 244 14 C244.58080322 15.14106201 244.58080322 15.14106201 245.17333984 16.30517578 C248.3006946 22.45543039 251.18339677 28.7022812 254 35 C254.5048291 36.12341797 255.0096582 37.24683594 255.52978516 38.40429688 C257.10203441 41.92791932 258.64929817 45.46139507 260.1875 49 C260.9287915 50.67400879 260.9287915 50.67400879 261.68505859 52.38183594 C262.35722412 53.95626465 262.35722412 53.95626465 263.04296875 55.5625 C263.44539795 56.49191406 263.84782715 57.42132813 264.26245117 58.37890625 C265.10795225 61.38363964 264.9643205 63.05127741 264 66 C261.26603321 68.73396679 259.2637334 68.56020176 255.4453125 69.03515625 C254.78852509 69.11873886 254.13173767 69.20232147 253.45504761 69.28843689 C252.05842052 69.46459726 250.66127002 69.63664876 249.26367188 69.80493164 C247.16681928 70.05746355 245.07168367 70.32141461 242.9765625 70.58789062 C230.46704096 72.16009354 218.11632582 73.18032348 205.5 73.1875 C204.36691406 73.19974609 203.23382813 73.21199219 202.06640625 73.22460938 C194.49847708 73.23761269 187.42079141 72.43634491 180 71 C158.17133852 67.11494956 137.38057162 67.05279929 115.51318359 70.61083984 C94.50232063 73.86431911 74.48510449 73.92664959 53.5859375 69.97265625 C43.32109527 68.09566667 33.10594267 67.7764545 22.6875 67.75 C21.69228836 67.74649536 21.69228836 67.74649536 20.67697144 67.74291992 C9.09709548 67.7277664 -2.2094755 68.64282742 -13.71899414 69.91943359 C-33.04317243 72.04969883 -33.04317243 72.04969883 -40 71 C-42 68 -42 68 -41.85546875 65.6640625 C-40.81162853 62.41338198 -39.29823046 60.15722493 -37.3125 57.375 C-36.92312256 56.82432861 -36.53374512 56.27365723 -36.13256836 55.70629883 C-33.6825464 52.26499282 -31.1670309 48.87375099 -28.640625 45.48828125 C-17.78268367 30.93424225 -8.30601181 16.14800061 0 0 Z " fill="#070707" transform="translate(139,315)"/>
<path d="M0 0 C2.75 0.5625 2.75 0.5625 5.04296875 3.71875 C8.25308571 9.11563249 10.58624561 14.88701589 12.99612427 20.67327881 C22.75241797 43.99779033 33.85257273 64.50823832 50.06811523 83.95458984 C61.75957555 97.99824371 70.13259841 111.3839258 76.90234375 128.43847656 C77.57126211 130.11462567 78.27877267 131.77537231 79 133.4296875 C79.75 135.5625 79.75 135.5625 79.75 139.5625 C76.45 139.5625 73.15 139.5625 69.75 139.5625 C69.16992188 138.24636719 68.58984375 136.93023437 67.9921875 135.57421875 C60.61500742 118.93119908 52.50871767 104.77212261 40.93701172 90.6809082 C23.22539917 69.0963222 8.62248406 44.17995218 -0.25 17.5625 C-17.0926394 41.15709155 -29.79141408 65.38925021 -40.5078125 92.203125 C-46.79809599 107.90079978 -53.5578333 121.38086735 -64.25 134.5625 C-64.87003906 135.50480469 -65.49007812 136.44710937 -66.12890625 137.41796875 C-68.25 139.5625 -68.25 139.5625 -71.484375 140.05078125 C-72.64453125 139.99277344 -73.8046875 139.93476563 -75 139.875 C-76.17046875 139.82988281 -77.3409375 139.78476563 -78.546875 139.73828125 C-79.43890625 139.68027344 -80.3309375 139.62226563 -81.25 139.5625 C-79.22076063 135.89744522 -76.85942241 132.79538508 -74.17749023 129.60644531 C-61.53650953 114.49054387 -54.69520832 97.84880782 -47.47216797 79.62890625 C-38.94813826 58.24220767 -27.89294834 38.78228296 -15.25 19.5625 C-14.66234863 18.66853516 -14.07469727 17.77457031 -13.46923828 16.85351562 C-2.82900469 0.70725117 -2.82900469 0.70725117 0 0 Z " fill="#060606" transform="translate(253.25,113.4375)"/>
</svg>
